<?xml version="1.0" encoding="utf-8"?>
<!-- Generator: Adobe Illustrator 19.2.1, SVG Export Plug-In . SVG Version: 6.00 Build 0)  -->
<svg version="1.1" id="Layer_1" xmlns="http://www.w3.org/2000/svg" xmlns:xlink="http://www.w3.org/1999/xlink" x="0px" y="0px"
	 viewBox="0 0 63.618 33.699" style="enable-background:new 0 0 63.618 33.699;" xml:space="preserve">
<style type="text/css">
	.st0{fill:#6DB9DA;}
	.st1{fill:#C1C1C4;}
</style>
<g>
	<g>
		<rect x="3.979" y="4.705" class="st0" width="5.409" height="24.288"/>
		<polygon class="st0" points="19.256,4.705 19.256,28.993 19.345,28.993 24.665,28.993 24.665,4.705 		"/>
		<polygon class="st1" points="9.388,4.705 9.388,14.538 19.256,28.993 19.256,19.267 		"/>
	</g>
	<g>
		<polygon class="st1" points="36.009,20.032 38.444,28.993 38.444,28.993 43.171,14.687 40.333,4.705 		"/>
		<polygon class="st0" points="31.845,4.705 26.436,4.705 33.126,28.993 38.444,28.993 		"/>
		<polygon class="st0" points="45.742,4.705 40.333,4.705 40.333,4.705 47.237,28.993 52.595,28.993 		"/>
		<polygon class="st1" points="59.639,4.705 54.231,4.705 50.066,20.032 52.595,28.993 52.595,28.993 		"/>
	</g>
</g>
</svg>
