<?xml version="1.0" encoding="utf-8"?>
<!-- Generator: Adobe Illustrator 19.2.1, SVG Export Plug-In . SVG Version: 6.00 Build 0)  -->
<svg version="1.1" id="Layer_1" xmlns="http://www.w3.org/2000/svg" xmlns:xlink="http://www.w3.org/1999/xlink" x="0px" y="0px"
	 viewBox="0 0 900 300" style="enable-background:new 0 0 900 300;" xml:space="preserve">
<style type="text/css">
	.st0{fill:none;stroke:#000000;stroke-miterlimit:10;}
</style>
<g>
	<path class="st0" d="M71.288,193.418v-86.709h22.344l35.229,51.987v-51.987h22.344v86.709h-22.027l-35.546-51.606v51.606H71.288z"
		/>
	<path class="st0" d="M175.072,193.418v-86.709h22.344v86.709H175.072z"/>
	<path class="st0" d="M219.791,172.359c-2.434-6.102-3.649-13.555-3.649-22.359c0-8.804,1.216-16.257,3.649-22.358
		s5.724-10.663,9.871-13.683c4.146-3.019,8.41-5.151,12.791-6.397c4.379-1.245,9.172-1.868,14.377-1.868
		c8.336,0,17.604,2.019,27.803,6.053v19.307c-8.676-4.168-17.52-6.253-26.533-6.253c-5.967,0-10.728,1.829-14.282,5.486
		c-3.555,3.658-5.332,10.23-5.332,19.714c0,9.484,1.777,16.056,5.332,19.714c3.555,3.657,8.315,5.486,14.282,5.486
		c9.014,0,17.857-2.084,26.533-6.253v19.307c-10.241,4.035-19.509,6.053-27.803,6.053c-5.205,0-9.998-0.623-14.377-1.868
		c-4.381-1.246-8.645-3.379-12.791-6.397C225.515,183.021,222.225,178.461,219.791,172.359z"/>
	<path class="st0" d="M301.772,193.418v-86.709h22.344v30.532l23.804-30.532h30.151l-34.023,37.705l36.499,49.004h-28.184
		l-22.09-33.77l-6.157,6.855v26.914H301.772z"/>
	<path class="st0" d="M431.645,106.709h22.344l14.865,54.717l15.437-54.717h19.313l15.437,54.717l14.865-54.717h22.344
		l-26.918,86.709H508.94l-14.993-49.639l-14.992,49.639h-20.392L431.645,106.709z"/>
	<path class="st0" d="M564.146,168.599c-1.65-5.374-2.476-11.573-2.476-18.599c0-7.024,0.825-13.224,2.476-18.599
		c1.65-5.374,3.798-9.638,6.443-12.79c2.644-3.152,5.808-5.734,9.489-7.744s7.3-3.354,10.854-4.031
		c3.555-0.677,7.363-1.016,11.426-1.016s7.871,0.339,11.426,1.016c3.555,0.678,7.173,2.021,10.854,4.031s6.845,4.592,9.489,7.744
		s4.793,7.416,6.443,12.79c1.65,5.375,2.476,11.574,2.476,18.599c0,7.025-0.825,13.225-2.476,18.599
		c-1.65,5.375-3.799,9.639-6.443,12.79c-2.645,3.153-5.808,5.735-9.489,7.744c-3.682,2.011-7.3,3.354-10.854,4.031
		s-7.363,1.016-11.426,1.016s-7.871-0.339-11.426-1.016s-7.173-2.021-10.854-4.031c-3.682-2.009-6.846-4.591-9.489-7.744
		C567.944,178.237,565.796,173.974,564.146,168.599z M589.029,130.386c-3.344,3.64-5.015,10.178-5.015,19.614
		c0,9.438,1.671,15.976,5.015,19.614c3.343,3.64,7.786,5.459,13.33,5.459c5.543,0,9.986-1.819,13.33-5.459
		c3.343-3.639,5.015-10.177,5.015-19.614c0-9.437-1.672-15.975-5.015-19.614c-3.344-3.639-7.787-5.459-13.33-5.459
		C596.815,124.927,592.371,126.747,589.029,130.386z"/>
	<path class="st0" d="M658.946,193.418v-86.709h22.344l35.229,51.987v-51.987h22.344v86.709h-22.027l-35.546-51.606v51.606H658.946z
		"/>
	<path class="st0" d="M755.587,150.066c0-8.748,1.219-16.175,3.658-22.281c2.438-6.106,5.736-10.671,9.893-13.692
		c4.156-3.021,8.429-5.155,12.818-6.402c4.391-1.246,9.193-1.87,14.41-1.87c10.315,0,20.272,2.158,29.87,6.475v17.964
		c-8.753-3.555-17.59-5.332-26.512-5.332c-14.53,0-21.794,8.379-21.794,25.137c0,9.461,1.9,16.016,5.702,19.664
		c3.801,3.648,8.911,5.473,15.331,5.473c5.026,0,8.996-0.645,11.911-1.934v-14.57H795.45v-16.504h33.262v43.854
		c-9.43,5.508-20.211,8.261-32.346,8.261c-4.072,0-7.889-0.339-11.451-1.017c-3.562-0.679-7.189-2.023-10.879-4.037
		c-3.689-2.012-6.86-4.597-9.511-7.754c-2.651-3.157-4.804-7.427-6.458-12.809C756.413,163.31,755.587,157.102,755.587,150.066z"/>
</g>
</svg>
