<?xml version="1.0" encoding="utf-8"?>
<!-- Generator: Adobe Illustrator 19.2.1, SVG Export Plug-In . SVG Version: 6.00 Build 0)  -->
<svg version="1.1" id="Layer_1" xmlns="http://www.w3.org/2000/svg" xmlns:xlink="http://www.w3.org/1999/xlink" x="0px" y="0px"
	 width="300px" height="300px" viewBox="0 0 300 300" style="enable-background:new 0 0 300 300;" xml:space="preserve">
<style type="text/css">
	.st0{fill:#CEEBEC;}
</style>
<path class="st0" d="M284.153,150c0,14.045-2.128,27.594-6.079,40.34c-17.19,55.457-68.89,95.737-129.998,95.737
	c-75.153,0-136.077-60.924-136.077-136.077S72.922,13.923,148.076,13.923S284.153,74.847,284.153,150z"/>
<g>
	<path d="M120.305,74.464c6.739,1.347,8.311,8.76,8.311,14.372c0,7.862-1.347,15.494-3.143,23.131
		c-1.571,5.836-3.143,11.673-4.938,17.514c-0.679,2.469-1.128,4.714-1.577,6.959c-0.673,2.918-1.571,5.617-2.469,8.535
		c-2.918,10.107-6.061,20.432-9.203,30.539c-1.352,3.816-3.821,7.637-4.944,11.453c-1.122,4.714-2.469,9.877-6.061,13.249
		c-2.918,2.694-6.964,3.816-11.004,3.592c-3.816-0.449-7.857-1.571-9.209-5.612c-0.449-1.352-0.449-2.699-0.449-4.046
		c-3.143-9.203-10.326-30.539-11.448-44.237c-0.898-12.351-4.944-29.866-7.862-41.768v0.224
		c-3.816,19.989-8.76,39.748-14.372,59.282c-2.918,9.433-5.387,19.315-9.209,28.294c-1.571,4.046-4.265,8.311-9.203,7.862
		c-3.821-0.449-7.413-3.143-9.882-6.061c-6.285-7.862-4.714-14.821-2.918-23.58c2.02-10.556,8.306-31.212,11.229-41.319
		c5.612-20.657,16.841-52.099,16.841-52.099c2.694-8.081,14.147-6.51,17.29,0.449v0.449c4.489,7.862,18.188,45.14,18.412,67.144
		c0,7.637,2.469,18.861,4.944,28.07l1.347-4.265c1.571-5.617,2.918-11.229,3.816-17.065c1.122-5.842,2.694-11.678,4.489-17.295
		c3.821-12.122,7.188-24.248,10.556-36.375c1.571-5.387,2.918-11.004,5.163-16.167c1.801-4.495,4.719-8.984,9.433-11.004
		C116.04,73.791,118.509,73.566,120.305,74.464z"/>
	<path d="M290.587,88.387c-3.592,9.433-8.76,19.983-14.596,32.335c-4.27,8.984-10.331,19.54-14.596,28.294
		c-10.78,21.335-12.576,30.09-22.907,44.686c-1.796,2.469-2.694,5.842-4.938,7.637c-3.143,2.694-7.413,2.918-11.229,1.796
		c-3.816-0.898-7.183-3.367-10.556-5.612c-1.796-1.128-3.592-2.474-4.714-4.495c-1.122-2.245-1.122-4.714-1.122-7.183
		c0.673-19.764,2.918-39.074,6.51-58.384c-2.02-0.224-4.041,1.122-5.163,3.143c-1.122,1.796-1.796,4.041-2.245,6.061
		c-1.796,6.739-21.784,37.727-27.396,48.058c-1.796,3.143-3.367,6.285-5.612,8.979c-2.474,2.469-6.066,4.046-9.209,2.918
		c-1.571-0.449-2.918-1.571-4.265-2.918c-8.535-7.632-16.173-17.739-16.622-29.865c-0.224-5.612,1.352-11.004,2.474-16.392
		c3.816-18.637,4.938-35.477,8.979-54.119c1.347-5.836,1.796-14.147,5.842-18.188c8.081-7.408,24.697,0.449,28.07,10.331
		c2.02,6.51,0.224,13.474-1.347,19.983c-5.168,19.534-9.209,39.299-12.127,59.282c-0.224,1.796,0,4.27,1.571,4.27
		c0.898,0,1.571-0.903,2.02-1.577c11.453-16.167,19.31-35.477,30.988-51.42c1.122-1.571,2.469-3.367,4.265-4.265
		c3.372-2.25,7.637-1.128,11.678,0c4.489,1.122,9.433,2.694,12.127,6.959c3.592,5.387,2.02,12.8,0.898,19.534
		c-1.347,7.413-2.02,15.045-1.796,22.682c0,1.347,0.449,3.143,1.571,3.592c1.347,0.673,3.143-0.449,3.816-2.02
		c11.902-30.09,27.172-56.364,40.197-81.515c1.122-2.02,5.163-4.489,7.188-4.489c1.796,0,3.367,4.489,3.367,6.515
		C291.934,84.795,291.26,86.591,290.587,88.387z"/>
</g>
</svg>
